<svg xmlns="http://www.w3.org/2000/svg" viewBox="0 0 253.4 253.34"><defs><style>.cls-1{fill:#13d380;}</style></defs><g id="Layer_2" data-name="Layer 2"><g id="Layer_1-2" data-name="Layer 1"><path class="cls-1" d="M114.74,209.43l-4.2,10L107.41,227c.12-.17.2-.34.32-.52l2.64-6.37,4.45-10.71Z"/><path class="cls-1" d="M253.4,126.65A126.83,126.83,0,0,1,128.52,253.34l13.38-32.1a32,32,0,0,1,17-17.4A83.57,83.57,0,0,0,186,67.72a86.48,86.48,0,0,0-9-7.84l-4.82,11.6L151.5,121.05,136.16,157.9V158l-21.42,51.47-4.2,10L107.41,227A30.36,30.36,0,0,1,70,240c-2-1-4.08-2.09-6.06-3.24s-3.71-2.18-5.51-3.33A126.68,126.68,0,0,1,123.61,0L110,32.77A32,32,0,0,1,93.41,50,83.47,83.47,0,0,0,66.89,185a78.31,78.31,0,0,0,8.5,7.64L80,181.42l17.35-41.64,39.92-96,5.23-12.58,1.35-3.25,0,0a30.29,30.29,0,0,1,27.37-17.21,29.87,29.87,0,0,1,10.13,1.75c2.65,1.24,5.2,2.59,7.73,4.05,1.61.89,3.16,1.81,4.71,2.79A126.64,126.64,0,0,1,253.4,126.65Z"/><path class="cls-1" d="M189.15,16.51c-2.53-1.46-5.08-2.81-7.73-4.05A30.8,30.8,0,0,1,189.15,16.51Z"/><path class="cls-1" d="M70,240A30.88,30.88,0,0,1,64,236.71C65.94,237.86,68,239,70,240Z"/><path class="cls-1" d="M110.54,219.48c-.05.23-.11.46-.17.66a32,32,0,0,1-2.64,6.37c-.12.18-.2.35-.32.52Z"/></g></g></svg>